<svg width="100" height="100" viewBox="0 0 276 318" fill="none" xmlns="http://www.w3.org/2000/svg">
<path d="M115.333 5.20002C115.333 7.73335 114.8 10.2667 114 10.6667C113.2 11.2 112.667 9.60002 112.667 6.80002C112.667 2.53335 112.267 2.00002 109.2 2.00002C106.267 2.00002 105.867 2.53335 106.4 4.93335C106.8 6.66669 107.867 13.3334 108.8 19.7334C110.267 30.4 110.667 31.4667 113.2 31.0667C115.6 30.6667 116 29.8667 115.733 24.6667L115.333 18.6667L117.6 24.2667C119.067 28 120.667 30 122.133 30C126.133 30 126.267 27.7334 122.667 20.5334C119.2 13.8667 118.933 9.33335 121.6 2.53335C122.133 1.20002 121.333 0.666687 118.8 0.666687C115.733 0.666687 115.333 1.20002 115.333 5.20002Z" fill="#BE1E2D"/>
<path d="M152.133 4.93333C151.733 7.33333 150.8 13.4667 150 18.4C149.2 23.3333 148.933 28 149.333 28.6667C149.867 29.4667 152.8 30 156.133 30C161.067 30 162 29.6 162 27.4667C162 26 160.8 24.4 159.2 24C155.733 22.8 156.4 18.8 160.4 18.2667C164.133 17.7333 164.267 13.2 160.533 12.2667C157.067 11.3333 157.867 8.13333 161.733 7.6C165.6 7.06667 165.6 2.53333 161.733 1.46667C154.933 -0.266665 152.8 0.400002 152.133 4.93333Z" fill="#BE1E2D"/>
<path d="M189.6 23.6C185.467 32.2667 184.133 36.5333 185.067 37.6C187.067 40.2667 188.533 39.7333 191.333 34.9333L194 30.6667V36.2667C194 40.4 194.667 42.2667 196.533 43.2C199.733 44.9333 200.667 43.8667 200.667 38.5333C200.667 36.1333 201.467 33.6 202.533 33.0667C205.067 31.6 208.667 24 208.667 20.1333C208.667 17.4667 207.467 16.1333 203.333 14C200.533 12.5333 197.467 11.3333 196.8 11.3333C196.133 11.3333 192.8 16.9333 189.6 23.6ZM202 21.8667C202 24.5333 198.4 28.2667 197.2 26.9333C196.667 26.5333 196.667 24.5333 197.2 22.6667C198.133 18.8 202 18.1333 202 21.8667Z" fill="#BE1E2D"/>
<path d="M68 15.8668C65.6 17.6001 65.7333 18.1335 69.3333 31.2001C72.6666 43.2001 73.4666 44.8001 75.8666 44.4001C77.8666 44.1335 78.6666 43.0668 78.6666 40.8001C78.6666 37.3335 81.2 35.6001 82.6666 37.8668C83.8666 40.0001 88.6666 39.6001 88.6666 37.3335C88.6666 35.2001 73.2 14.0001 71.6 14.0001C70.9333 14.0001 69.3333 14.8001 68 15.8668ZM76.6666 30.5335C75.0666 32.1335 74.5333 31.6001 73.4666 26.6668L72.5333 22.6668L75.2 26.0001C76.8 28.0001 77.3333 29.8668 76.6666 30.5335Z" fill="#BE1E2D"/>
<path d="M233.2 42.8C231.867 46.2667 228.8 51.4667 226.4 54.4C223.867 57.3333 222.133 60.4 222.4 61.2C223.333 63.8667 228.4 63.6 229.867 60.8C230.667 59.3333 235.2 56 240 53.3333C248.4 48.5333 250.667 45.3333 246.667 43.8667C245.6 43.4667 242.8 44.4 240.533 46.1333L236.267 49.2L238.667 45.0667C240 42.8 240.667 40 240.267 38.8C238.667 34.8 235.6 36.6667 233.2 42.8Z" fill="#BE1E2D"/>
<path d="M29.6 43.0666C27.6 45.0666 26 47.4666 26 48.2666C26 49.0666 30.1333 54.1333 35.2 59.5999L44.4 69.3333L48.5333 65.4666C51.0667 62.9333 52.6667 60.1333 52.6667 57.9999C52.6667 54.3999 47.8667 48.6666 44.9333 48.6666C44 48.6666 43.3333 47.8666 43.3333 46.9333C43.3333 44.5333 37.7333 39.3333 35.2 39.3333C34 39.3333 31.6 41.0666 29.6 43.0666ZM36.6667 49.4666C36.6667 50.5333 36.1333 51.0666 35.3333 50.6666C34.6667 50.2666 34 48.9333 34 47.8666C34 46.7999 34.6667 46.2666 35.3333 46.6666C36.1333 47.0666 36.6667 48.3999 36.6667 49.4666ZM45.6 55.9999C46 57.1999 46 58.5333 45.4667 58.9333C44.4 60.1333 40.5333 56.5333 41.4667 55.1999C42.5333 53.3333 44.6667 53.7333 45.6 55.9999Z" fill="#BE1E2D"/>
<path d="M2.4 84.4C0.133333 86.5333 0 92 0 162.133C0 225.867 0.266667 238 1.86667 239.867C3.6 242 6.53333 242.133 32.5333 241.733C60.6667 241.333 61.4667 241.2 68 237.733C76.2667 233.467 79.7333 229.733 83.3333 221.6C91.3333 203.6 88.1333 163.733 78.2667 158C72.1333 154.533 72.1333 154.4 77.0667 150C83.6 144.267 85.3333 138.533 85.3333 121.333C85.3333 108.267 84.9333 105.867 81.8667 99.2C74.9333 84.5333 67.4667 82 31.0667 82C7.73333 82 4.4 82.2667 2.4 84.4ZM48.8 116.533C55.6 123.333 53.2 136.133 44.5333 139.2C39.0667 141.067 38.5333 141.067 36.1333 138.533C34.5333 137.067 34 133.867 34 126.667C34 119.467 34.5333 116.267 36.1333 114.8C39.3333 111.467 44.4 112.267 48.8 116.533ZM46.6667 175.333C56 178.933 56.4 201.333 47.2 207.867C43.0667 210.667 39.8667 210.533 36.6667 207.333C34.4 205.067 34 202.933 34 191.733C34 174.933 36.6667 171.467 46.6667 175.333Z" fill="#BE1E2D"/>
<path d="M230.4 84.0001C216.133 87.8667 205.733 95.4667 197.2 108.267C179.067 135.6 177.6 187.067 194.133 216.133C199.2 225.067 209.6 234.667 219.067 239.067C226.133 242.4 228 242.667 244 242.667C259.467 242.667 262 242.4 267.067 239.6C270.267 237.867 273.333 235.067 274 233.2C275.867 228.533 275.733 153.333 274 147.067C273.2 144.267 271.467 141.467 270 140.667C268.667 140 261.2 139.333 253.6 139.333C235.067 139.333 233.6 140.4 232.933 154.533C232.267 168.133 233.067 170.667 239.467 174.8L244.933 178.133L244.4 190C244.133 196.933 243.333 202.533 242.4 203.467C240 205.867 232.8 205.2 229.733 202.4C224.933 198.267 222 189.467 220.533 175.067C216.4 133.867 230.267 113.733 258.8 119.467C267.467 121.2 267.733 121.2 270.133 118.133C272.267 115.6 272.667 112.8 272.667 102.533C272.667 88.2667 271.467 85.8667 262.4 83.4667C255.333 81.4667 238.667 81.7334 230.4 84.0001Z" fill="#BE1E2D"/>
<path d="M122.4 98.6667C116.533 101.6 114.8 103.333 111.867 109.467C108.933 115.6 108.4 118 109.067 123.867C109.467 127.733 111.067 133.467 112.667 136.667L115.467 142.267L109.333 148.8C99.8667 158.933 97.6 165.333 98.2667 179.2C99.0667 194.933 103.6 203.333 114.267 208.8C121.333 212.4 135.733 212.267 141.867 208.533C146 206 146.533 206 148.667 208C150.933 210.133 166.933 211.733 171.067 210.267C173.733 209.333 172.933 205.733 168.133 196.8L163.6 188.267L166.133 184.133C170 177.867 174 163.867 174 156.667C174 149.2 173.2 148.667 162.533 148.667C156 148.667 155.2 148.933 154 152.133C153.2 154 152.667 157.6 152.667 160.133C152.667 162.667 152.133 164.667 151.467 164.667C150.267 164.667 144.667 152.667 144.667 150C144.667 149.067 146.8 146 149.333 142.933C156.533 134.533 159.333 127.6 159.333 118.4C159.333 104.533 151.6 96.4 137.6 95.6C130.667 95.2 128.133 95.7333 122.4 98.6667ZM142.133 117.2C143.733 120.533 142.133 124.533 136.8 131.2L134.267 134.533L131.467 128.8C127.733 121.6 128.133 115.333 132.533 113.067C136.533 111.2 140.133 112.8 142.133 117.2ZM132.133 174.8C136.133 182.267 137.867 186.667 137.067 187.467C135.067 189.467 127.733 189.333 125.333 187.333C122.267 184.8 119.333 178.667 119.333 175.067C119.333 172.267 123.867 163.333 125.2 163.333C125.6 163.333 128.667 168.533 132.133 174.8Z" fill="#BE1E2D"/>
<path d="M38.5333 254.533C33.8667 256.667 28.9333 262.267 27.8667 266.933C26.8 270.933 28.9333 276 32.5333 277.867C34.8 279.067 36 278.667 39.8667 275.2C45.2 270.533 46.9333 266.667 44.6667 264C42.5333 261.467 39.7333 262.8 38.8 266.8C38.2667 268.533 37.0667 270 36 270C33.3333 270 33.4667 268.4 36.6667 264.267C40.4 259.6 44.2667 258.533 47.3333 261.333C50.1333 263.867 52.6667 263.067 52.6667 259.467C52.6667 254.267 45.0667 251.733 38.5333 254.533Z" fill="#BE1E2D"/>
<path d="M227.067 256.8C222.4 260.267 221.733 266.667 226 265.6C228 265.067 230.267 266.667 234.933 272.133C241.067 279.2 246 281.467 246 277.2C246 276.133 243.467 272.133 240.4 268.4C236.8 264.267 234.667 260.4 234.667 258.267C234.667 253.733 231.733 253.2 227.067 256.8Z" fill="#BE1E2D"/>
<path d="M66.2667 273.467C62.6667 276 56.6667 287.333 56.6667 291.733C56.6667 297.467 63.0667 300.933 69.2 298.533C72.4 297.333 79.3334 284.267 79.3334 279.6C79.3334 276.8 78.4 274.8 76.4 273.467C72.6667 270.8 70 270.8 66.2667 273.467ZM72.6667 280C72.6667 282.667 66.4 292.667 64.6667 292.667C62.5334 292.667 63.0667 289.867 66.6667 283.733C70.1334 277.867 72.6667 276.4 72.6667 280Z" fill="#BE1E2D"/>
<path d="M201.733 273.467C199.6 274.533 198 275.733 198 276.133C198 276.8 209.867 299.6 210.667 300.4C210.8 300.667 213.2 299.733 215.867 298.4C219.467 296.667 220.667 295.467 220.4 293.333C220.133 291.333 219.2 290.8 216.4 291.067C212 291.467 210.133 288.8 213.333 286.533C216.4 284.267 214.933 280.133 211.333 281.067C207.867 282 206.267 279.333 209.2 277.333C211.867 275.333 210.667 271.333 207.467 271.333C206.267 271.467 203.733 272.4 201.733 273.467Z" fill="#BE1E2D"/>
<path d="M178.267 283.467C175.6 284.533 175.333 285.2 176.133 289.333C177.2 295.067 174.933 295.6 172.667 290C171.467 287.2 170.133 286 167.867 286C162.8 286 162.667 285.6 168.8 308.933C169.733 312.8 170.8 314 172.933 314C175.733 314 175.867 312.667 173.333 302L172.533 298.667L174.8 301.6C177.867 305.867 179.333 305.467 179.467 300.267C179.6 296.4 179.867 296.667 181.733 302.933C183.2 308.133 184.4 310 186.133 310C187.6 310 188.667 309.067 188.667 307.867C188.667 305.067 183.2 284.267 182.133 283.2C181.733 282.667 180 282.8 178.267 283.467Z" fill="#BE1E2D"/>
<path d="M94 295.2C90.6667 308.667 91.3334 311.867 97.8667 313.333C103.867 314.667 106.933 312.267 109.2 304C112.933 291.6 113.2 288.533 111.2 287.2C108 285.2 107.733 285.733 105.467 295.067C102.667 306.133 101.333 308.533 99.3334 306.533C98.1334 305.333 98.4 302.4 100.4 295.2C101.867 289.733 103.067 285.333 102.933 285.2C102.8 285.067 101.333 284.667 99.8667 284.133C97.2 283.333 96.8 284.133 94 295.2Z" fill="#BE1E2D"/>
<path d="M130 304C130 316.933 130.133 318 132.533 318C134.667 318 135.333 316.933 135.6 312.933L136.133 308L138.4 312.933C140.133 316.8 141.467 318 144 318C147.867 318 148 317.733 145.2 312.4C143.733 309.467 143.467 308 144.533 306.933C146.4 305.067 146.4 296 144.667 292.533C143.6 290.533 141.733 290 136.667 290H130V304ZM139.867 297.333C140.933 300.133 139.467 303.333 137.2 303.333C136 303.333 135.333 301.867 135.333 299.333C135.333 295.067 138.4 293.733 139.867 297.333Z" fill="#BE1E2D"/>
</svg>
