<svg width="100" height="100" viewBox="0 0 100 36" fill="none" xmlns="http://www.w3.org/2000/svg">
<path fill-rule="evenodd" clip-rule="evenodd" d="M18.0848 0.571042C16.7803 1.21486 16.6873 1.64106 16.6873 6.97951C16.6873 14.0873 16.3913 13.7865 23.4956 13.8955L28.4611 13.9716V12.9084V11.8451H24.8163C22.2546 11.8451 21.0985 11.7622 20.9259 11.5664C20.5798 11.1739 20.5798 2.99373 20.9259 2.60121C21.0985 2.40542 22.2546 2.3225 24.8163 2.3225H28.4611V1.27734V0.232178L23.598 0.241236C19.9267 0.248204 18.5756 0.329029 18.0848 0.571042ZM30.3039 1.16121V2.09024H34.6653C37.7845 2.09024 39.0968 2.16967 39.2725 2.36895C39.4076 2.52224 39.5182 3.03693 39.5182 3.51259V4.37729L35.5765 4.45324C31.2098 4.53708 30.9731 4.60908 30.3676 6.03654C29.8817 7.18157 29.8815 11.191 30.3672 12.2374C31.0147 13.6321 31.2516 13.7031 35.2589 13.7031H38.8945L39.2299 13.1225C39.6576 12.3821 39.9277 12.3821 39.9277 13.1225C39.9277 13.6992 39.9402 13.7031 41.7865 13.7031H43.6453L43.5782 8.07089C43.5196 3.15933 43.4635 2.33969 43.1392 1.66544C42.4946 0.325778 42.0183 0.232178 35.839 0.232178H30.3039V1.16121ZM45.4112 6.96789L45.3538 13.7034H47.3503L49.3467 13.7031V8.52379C49.3467 4.80511 49.4159 3.26593 49.5924 3.06573C49.7558 2.88038 50.6481 2.78702 52.2543 2.78702H54.6705V1.5096V0.232178H52.5661C50.3951 0.232178 49.5514 0.528307 49.5514 1.29058C49.5514 1.91117 49.1329 1.63223 49.0088 0.928952L48.886 0.232178H47.1772H45.4683L45.4112 6.96789ZM34.2353 6.78185C34.0801 6.95791 33.9896 7.84002 33.9896 9.17411C33.9896 10.5082 34.0801 11.3903 34.2353 11.5664C34.5732 11.9496 38.9346 11.9496 39.2725 11.5664C39.4318 11.3857 39.5182 10.4464 39.5182 8.8954V6.50315H36.9996C35.3138 6.50315 34.3998 6.59535 34.2353 6.78185ZM56.5133 19.7419V21.1354H58.5609H60.6085V19.7419V18.3483H58.5609H56.5133V19.7419ZM19.2469 19.6582C18.2896 19.8097 17.3913 19.9425 17.2504 19.9539C17.0762 19.9676 16.9945 20.4184 16.9945 21.3677V22.7612H15.8683H14.7421V23.6902V24.6193H15.8683H16.9945V28.9235C16.9945 35.7017 16.932 35.6237 22.4415 35.7233L26.4135 35.7953V34.7362V33.6773H23.9635C21.7324 33.6773 21.4943 33.6362 21.2969 33.2179C21.1614 32.9309 21.1012 31.2242 21.1362 28.6645L21.1921 24.5705L23.2397 24.5368L25.2873 24.5031L25.3504 23.6405L25.4134 22.7777L23.3028 22.7115L21.1921 22.6451L21.0897 21.0142L20.9873 19.3832L19.2469 19.6582ZM48.1181 19.5577C47.4987 19.6529 46.6004 19.7918 46.1217 19.8666L45.2515 20.0027V21.3818V22.7612H44.1253H42.9991V23.5741V24.387H44.1253H45.2515L45.2629 28.7419C45.276 33.665 45.4196 34.4443 46.4591 35.2369C47.1209 35.7416 47.3384 35.7677 50.9127 35.7677H54.6705V34.7297V33.6917L52.1621 33.6265L49.6538 33.5612L49.5048 29.4967C49.4229 27.2612 49.4016 25.1969 49.4575 24.9096C49.5547 24.4102 49.6501 24.387 51.6029 24.387H53.6467V23.5822V22.7775L51.5479 22.7113L49.4491 22.6451L49.3467 21.0149L49.2443 19.3849L48.1181 19.5577ZM1.25186 23.14C0.504486 23.7337 0.204102 24.8615 0.204102 27.0735C0.204102 29.3808 0.555062 30.4917 1.45007 31.0166C1.8858 31.2721 2.84408 31.3548 5.37431 31.3548C7.7051 31.3548 8.79689 31.4395 8.96786 31.6335C9.36796 32.0873 9.27152 33.3935 8.81757 33.6692C8.5823 33.812 6.75337 33.9096 4.31283 33.9096H0.204102V34.8386V35.7677H5.84526C12.0722 35.7677 12.3956 35.7036 13.0152 34.3444C13.2734 33.7781 13.3284 33.0653 13.2746 30.9852C13.2093 28.4573 13.1822 28.3173 12.6392 27.7013L12.072 27.058L8.44593 26.9844C6.21096 26.9388 4.71621 26.8129 4.54933 26.6557C4.39146 26.5071 4.30423 26.0539 4.34006 25.5683L4.4017 24.7354L8.85524 24.6727L13.3088 24.6102V23.6856V22.7612H7.51877C2.49701 22.7612 1.66527 22.8114 1.25186 23.14ZM28.2952 23.6113L28.3587 24.4616L32.4926 24.4084C35.202 24.3738 36.7719 24.4437 37.0485 24.6116C37.3657 24.8044 37.4706 25.0966 37.4706 25.7887V26.7096L33.7337 26.7101C30.5863 26.7103 29.8838 26.7744 29.2801 27.1165C28.2358 27.7081 27.8472 28.7639 27.8482 31.0064C27.8493 33.378 28.1124 34.4278 28.8923 35.1722C29.5111 35.7628 29.5469 35.7677 33.1714 35.7677C36.8264 35.7677 36.8266 35.7677 37.2291 35.187C37.4507 34.8677 37.6878 34.6064 37.756 34.6064C37.8242 34.6064 37.8801 34.8677 37.8801 35.187C37.8801 35.7632 37.8938 35.7677 39.7229 35.7677H41.5658V30.4183C41.5658 24.4804 41.4472 23.7606 40.3634 23.1249C39.8437 22.8202 38.8117 22.7612 33.9874 22.7612H28.2315L28.2952 23.6113ZM56.5133 29.2644V35.7677H58.5609H60.6085V29.2644V22.7612H58.5609H56.5133V29.2644ZM63.8603 23.1103C62.8341 23.743 62.6561 24.6311 62.6561 29.1207C62.6561 32.2975 62.7278 33.4068 62.9792 34.1193C63.5247 35.6659 63.9275 35.7677 69.5019 35.7677C76.6112 35.7677 76.3751 35.9911 76.3751 29.2644C76.3751 22.4957 76.6532 22.7573 69.4747 22.7705C65.4826 22.7779 64.2819 22.8504 63.8603 23.1103ZM78.218 29.2644V35.7677H80.2656H82.3132V30.4722C82.3132 26.6631 82.3822 25.0984 82.5589 24.898C82.7208 24.7143 83.5903 24.6193 85.1112 24.6193C87.2215 24.6193 87.4367 24.6595 87.6408 25.0919C87.7879 25.4038 87.8425 27.2993 87.8016 30.6663L87.7393 35.7681L89.8381 35.7679L91.9369 35.7677L91.932 30.8322C91.9267 25.3655 91.803 24.3619 91.0257 23.4796C90.4999 22.8824 90.4637 22.8766 86.8269 22.8049L83.1584 22.7322L82.8146 23.3275C82.3762 24.0862 82.0318 24.0939 82.1586 23.3419L82.2564 22.7612H80.2371H78.218V29.2644ZM96.544 23.1166C95.1486 23.6684 94.4393 25.222 94.8369 26.8555C95.5675 29.8572 99.364 29.8539 100.095 26.851C100.699 24.371 98.6965 22.2653 96.544 23.1166ZM96.2109 23.6168C95.073 24.4179 94.6809 26.1255 95.3433 27.3971C96.6196 29.8481 99.9226 28.8496 99.9226 26.0128C99.9226 23.8607 97.8056 22.4941 96.2109 23.6168ZM96.2369 26.0128C96.2369 26.9419 96.3247 27.6386 96.4417 27.6386C96.5543 27.6386 96.6464 27.3251 96.6464 26.9419C96.6464 25.9845 97.3533 25.9836 97.8334 26.9405C98.0251 27.3228 98.2511 27.6363 98.3357 27.6372C98.6072 27.6398 98.5003 27.2751 98.0789 26.7621L97.6686 26.2625L98.0789 26.0133C98.5378 25.7348 98.6166 25.0889 98.2436 24.6657C98.1084 24.5124 97.6016 24.387 97.1174 24.387H96.2369V26.0128ZM66.9971 24.898C66.7127 25.2206 66.6467 32.8986 66.9242 33.3944C67.0485 33.6167 67.7371 33.6757 69.6342 33.6267L72.1775 33.5612L72.2336 29.411C72.2721 26.5468 72.2168 25.1614 72.0549 24.94C71.7451 24.5164 67.3654 24.4801 66.9971 24.898ZM96.6464 25.316C96.6464 25.8482 96.7394 26.0128 97.0392 26.0128C97.6927 26.0128 98.0797 25.7536 98.0797 25.316C98.0797 24.8785 97.6927 24.6193 97.0392 24.6193C96.7394 24.6193 96.6464 24.7839 96.6464 25.316ZM32.4932 28.8547C32.1818 29.113 32.1386 29.4688 32.1896 31.3585L32.2492 33.5612H34.8087H37.3682V31.1225V28.6838L35.1123 28.6185C33.5088 28.5723 32.7514 28.6406 32.4932 28.8547Z" fill="#00A000"/>
</svg>
