<svg width="100" height="100" viewBox="0 0 256 256" fill="none" xmlns="http://www.w3.org/2000/svg">
<path d="M48.8581 118.954H207.662C210.041 118.962 212.393 118.601 214.543 117.897C216.693 117.193 218.588 116.164 220.087 114.887C221.585 113.609 222.65 112.115 223.203 110.515C223.755 108.915 223.781 107.249 223.278 105.641C215.897 81.5165 175.943 64 128.26 64C80.5772 64 40.6229 81.5165 33.242 105.641C32.7394 107.249 32.7652 108.915 33.3176 110.515C33.87 112.115 34.9348 113.609 36.4336 114.887C37.9323 116.164 39.8268 117.193 41.9772 117.897C44.1276 118.601 46.479 118.962 48.8581 118.954ZM128.26 74.9907C167.817 74.9907 201.98 89.1481 207.662 107.963H48.8581L48.7886 107.915C54.5404 89.1481 88.7032 74.9907 128.26 74.9907ZM228.851 152.255L187.993 162.559L151.108 152.317C149.214 151.794 147.101 151.794 145.207 152.317L108.452 162.491L71.6367 152.317C69.8242 151.817 67.8087 151.795 65.9743 152.255L22.265 163.246C20.4176 163.808 18.9489 164.836 18.1569 166.119C17.3649 167.403 17.309 168.847 18.0005 170.159C18.692 171.47 20.0791 172.55 21.8802 173.18C23.6814 173.81 25.7617 173.942 27.6989 173.55L40.8415 170.26V173.907C40.8415 181.194 45.0279 188.183 52.4798 193.336C59.9317 198.489 70.0386 201.384 80.5772 201.384H175.943C186.482 201.384 196.589 198.489 204.04 193.336C211.492 188.183 215.679 181.194 215.679 173.907V167.265L234.285 162.587C235.328 162.376 236.298 162.019 237.134 161.538C237.97 161.057 238.654 160.463 239.145 159.793C239.635 159.122 239.922 158.388 239.986 157.638C240.05 156.888 239.892 156.136 239.519 155.43C239.147 154.724 238.569 154.078 237.821 153.532C237.073 152.987 236.171 152.553 235.171 152.258C234.171 151.963 233.095 151.813 232.007 151.817C230.92 151.822 229.846 151.98 228.851 152.283V152.255ZM199.784 173.907C199.784 178.28 197.273 182.473 192.801 185.565C188.33 188.656 182.266 190.393 175.943 190.393H80.5772C74.2541 190.393 68.1899 188.656 63.7188 185.565C59.2476 182.473 56.7358 178.28 56.7358 173.907V166.269L68.5273 163.301L105.412 173.516C107.306 174.039 109.419 174.039 111.313 173.516L148.068 163.342L184.824 173.516C186.636 174.016 188.652 174.038 190.486 173.577L199.695 171.262L199.784 173.907ZM17 135.44C17 133.982 17.8373 132.584 19.3277 131.554C20.818 130.523 22.8394 129.944 24.9472 129.944H231.573C233.681 129.944 235.702 130.523 237.193 131.554C238.683 132.584 239.52 133.982 239.52 135.44C239.52 136.897 238.683 138.295 237.193 139.325C235.702 140.356 233.681 140.935 231.573 140.935H24.9472C22.8394 140.935 20.818 140.356 19.3277 139.325C17.8373 138.295 17 136.897 17 135.44Z" fill="#BE1E2D"/>
<rect width="108" height="86" transform="translate(74 90)" fill="white"/>
<path d="M91.7393 124V94.9091H111.342V99.9801H97.8899V106.912H110.333V111.983H97.8899V118.929H111.398V124H91.7393ZM121.246 124H114.655L124.697 94.9091H132.624L142.652 124H136.061L128.774 101.557H128.547L121.246 124ZM120.834 112.565H136.402V117.366H120.834V112.565ZM141.491 99.9801V94.9091H165.383V99.9801H156.477V124H150.397V99.9801H141.491ZM91.9151 151.276C91.8015 150.13 91.3138 149.24 90.4521 148.605C89.5903 147.971 88.4208 147.653 86.9435 147.653C85.9397 147.653 85.0922 147.795 84.4009 148.08C83.7096 148.354 83.1793 148.738 82.81 149.23C82.4502 149.723 82.2702 150.281 82.2702 150.906C82.2513 151.427 82.3602 151.882 82.5969 152.27C82.8432 152.658 83.1793 152.994 83.6055 153.278C84.0316 153.553 84.524 153.795 85.0827 154.003C85.6415 154.202 86.238 154.372 86.8725 154.514L89.4862 155.139C90.7551 155.423 91.9199 155.802 92.9805 156.276C94.0411 156.749 94.9596 157.331 95.7362 158.023C96.5127 158.714 97.114 159.528 97.5401 160.466C97.9757 161.403 98.1983 162.478 98.2077 163.69C98.1983 165.471 97.7437 167.014 96.8441 168.321C95.954 169.618 94.6661 170.627 92.9805 171.347C91.3043 172.057 89.2826 172.412 86.9151 172.412C84.5666 172.412 82.5212 172.052 80.7788 171.332C79.0458 170.613 77.6916 169.547 76.7163 168.136C75.7504 166.716 75.2437 164.959 75.1964 162.866H81.1481C81.2144 163.842 81.4937 164.656 81.9862 165.31C82.488 165.954 83.1557 166.441 83.989 166.773C84.8318 167.095 85.7835 167.256 86.8441 167.256C87.8858 167.256 88.7901 167.104 89.5572 166.801C90.3337 166.498 90.935 166.077 91.3612 165.537C91.7873 164.997 92.0004 164.377 92.0004 163.676C92.0004 163.023 91.8062 162.473 91.418 162.028C91.0392 161.583 90.4805 161.205 89.7418 160.892C89.0127 160.58 88.1178 160.295 87.0572 160.04L83.8896 159.244C81.4369 158.648 79.5004 157.715 78.0799 156.446C76.6594 155.177 75.954 153.468 75.9634 151.318C75.954 149.557 76.4227 148.018 77.3697 146.702C78.3261 145.385 79.6377 144.358 81.3043 143.619C82.971 142.881 84.8649 142.511 86.9862 142.511C89.1452 142.511 91.0297 142.881 92.6396 143.619C94.2589 144.358 95.5183 145.385 96.418 146.702C97.3176 148.018 97.7816 149.543 97.81 151.276H91.9151ZM101.237 147.98V142.909H125.129V147.98H116.223V172H110.143V147.98H101.237ZM154.468 157.455C154.468 160.627 153.867 163.326 152.664 165.551C151.471 167.777 149.842 169.476 147.778 170.651C145.723 171.815 143.413 172.398 140.846 172.398C138.261 172.398 135.941 171.811 133.886 170.636C131.831 169.462 130.207 167.762 129.014 165.537C127.821 163.312 127.224 160.617 127.224 157.455C127.224 154.282 127.821 151.583 129.014 149.358C130.207 147.133 131.831 145.437 133.886 144.273C135.941 143.098 138.261 142.511 140.846 142.511C143.413 142.511 145.723 143.098 147.778 144.273C149.842 145.437 151.471 147.133 152.664 149.358C153.867 151.583 154.468 154.282 154.468 157.455ZM148.233 157.455C148.233 155.4 147.925 153.667 147.309 152.256C146.703 150.845 145.846 149.775 144.738 149.045C143.63 148.316 142.333 147.952 140.846 147.952C139.359 147.952 138.062 148.316 136.954 149.045C135.846 149.775 134.984 150.845 134.369 152.256C133.763 153.667 133.46 155.4 133.46 157.455C133.46 159.509 133.763 161.242 134.369 162.653C134.984 164.064 135.846 165.134 136.954 165.864C138.062 166.593 139.359 166.957 140.846 166.957C142.333 166.957 143.63 166.593 144.738 165.864C145.846 165.134 146.703 164.064 147.309 162.653C147.925 161.242 148.233 159.509 148.233 157.455ZM159.025 172V142.909H170.502C172.708 142.909 174.588 143.33 176.141 144.173C177.694 145.007 178.878 146.167 179.692 147.653C180.516 149.131 180.928 150.835 180.928 152.767C180.928 154.699 180.511 156.403 179.678 157.881C178.845 159.358 177.637 160.509 176.056 161.332C174.484 162.156 172.58 162.568 170.346 162.568H163.03V157.639H169.351C170.535 157.639 171.51 157.436 172.277 157.028C173.054 156.612 173.632 156.039 174.01 155.31C174.399 154.571 174.593 153.723 174.593 152.767C174.593 151.801 174.399 150.958 174.01 150.239C173.632 149.509 173.054 148.946 172.277 148.548C171.501 148.141 170.516 147.938 169.323 147.938H165.175V172H159.025Z" fill="#BE1E2D"/>
<path d="M148 27.3846C148 38.1108 129 64 129 64C129 64 110 38.1108 110 27.3846C110 22.2435 112.002 17.3129 115.565 13.6776C119.128 10.0423 123.961 8 129 8C134.039 8 138.872 10.0423 142.435 13.6776C145.998 17.3129 148 22.2435 148 27.3846Z" fill="#BE1E2D" stroke="black" stroke-linecap="round" stroke-linejoin="round"/>
<path d="M129 33.8459C132.498 33.8459 135.333 30.953 135.333 27.3844C135.333 23.8158 132.498 20.9229 129 20.9229C125.502 20.9229 122.667 23.8158 122.667 27.3844C122.667 30.953 125.502 33.8459 129 33.8459Z" fill="white" stroke="black" stroke-linecap="round" stroke-linejoin="round"/>
</svg>
